<svg viewBox="0 0 48 48" xmlns="http://www.w3.org/2000/svg">
  <rect width="48" height="48" rx="11" fill="#0f6e78"/>
  <rect x="14" y="7" width="3.5" height="7" rx="1.75" fill="#fff"/>
  <rect x="30.5" y="7" width="3.5" height="7" rx="1.75" fill="#fff"/>
  <rect x="8" y="11" width="32" height="28" rx="5.5" fill="#fff"/>
  <path d="M13.5 11 h21 a5.5 5.5 0 0 1 5.5 5.5 v1.8 H8 v-1.8 a5.5 5.5 0 0 1 5.5 -5.5 Z" fill="#0a555e"/>
  <g fill="#0f6e78">
    <rect x="13" y="23" width="4.6" height="4.6" rx="1.3"/>
    <rect x="21.7" y="23" width="4.6" height="4.6" rx="1.3"/>
    <rect x="30.4" y="23" width="4.6" height="4.6" rx="1.3"/>
    <rect x="13" y="30.5" width="4.6" height="4.6" rx="1.3"/>
    <rect x="30.4" y="30.5" width="4.6" height="4.6" rx="1.3"/>
  </g>
  <rect x="21.7" y="30.5" width="4.6" height="4.6" rx="1.3" fill="#e8813a"/>
</svg>
